<svg width="93" height="78" viewBox="0 0 93 78" fill="none" xmlns="http://www.w3.org/2000/svg">
<g clip-path="url(#clip0_1_631)">
<path d="M0 27C0 24.7909 1.79086 23 4 23H51C53.2091 23 55 24.7909 55 27V74C55 76.2091 53.2091 78 51 78H4C1.79086 78 0 76.2091 0 74V27Z" fill="#35B8BE"/>
<g opacity="0.2">
<path opacity="0.2" fill-rule="evenodd" clip-rule="evenodd" d="M-0.71721 -29.294C0.923577 -25.8601 1.21114 -18.6773 1.89655 -12.7098C2.53421 -7.15849 3.18081 -1.75099 3.12665 4.16884C3.06411 11.1428 3.26932 19.7421 1.5685 23.9157C-0.144592 28.1213 -2.56347 23.1155 -4.70624 23.3969C-6.64492 23.6499 -8.73995 29.0546 -10.3478 25.476C-11.9727 21.857 -11.1968 13.3557 -11.9084 7.35882C-12.5648 1.82857 -14.5021 -2.19195 -14.331 -8.08978C-14.1573 -14.0756 -12.4487 -18.099 -11.0569 -22.0058C-9.6984 -25.8173 -8.20558 -28.9558 -6.45535 -30.1887C-4.53817 -31.5408 -2.37391 -32.7599 -0.71721 -29.294Z" stroke="white"/>
<path opacity="0.2" fill-rule="evenodd" clip-rule="evenodd" d="M0.295392 -36.2286C2.3357 -31.9588 2.69389 -23.0288 3.54681 -15.6166C4.34054 -8.71412 5.14377 -1.9957 5.07872 5.36422C5.00194 14.0276 5.25823 24.7133 3.14422 29.8998C1.01485 35.1248 -1.99283 28.8986 -4.65656 29.2414C-7.06679 29.5549 -9.67051 36.2686 -11.67 31.8182C-13.6908 27.3201 -12.7273 16.7555 -13.6129 9.30302C-14.4295 2.42802 -16.8386 -2.57038 -16.6281 -9.8973C-16.4132 -17.3342 -14.2894 -22.3336 -12.5598 -27.1855C-10.8716 -31.9201 -9.01609 -35.819 -6.8401 -37.349C-4.45556 -39.0274 -1.76501 -40.5406 0.295392 -36.2286Z" stroke="white"/>
<path opacity="0.2" fill-rule="evenodd" clip-rule="evenodd" d="M1.23682 -42.6647C3.64816 -37.623 4.07252 -27.0741 5.08095 -18.3117C6.0193 -10.1589 6.9691 -2.22041 6.8926 6.47143C6.80271 16.706 7.10646 29.3332 4.60885 35.4556C2.09309 41.6248 -1.46182 34.2685 -4.6091 34.6746C-7.45682 35.0413 -10.5332 42.9687 -12.8962 37.7079C-15.2844 32.3912 -14.1467 19.9153 -15.1939 11.1107C-16.1594 2.98996 -19.0065 -2.91983 -18.7569 -11.575C-18.5037 -20.3631 -15.9944 -26.2672 -13.951 -31.9955C-11.9565 -37.5871 -9.76318 -42.1909 -7.19326 -43.9976C-4.37849 -45.9739 -1.19937 -47.7586 1.23682 -42.6647Z" stroke="white"/>
<path opacity="0.2" fill-rule="evenodd" clip-rule="evenodd" d="M2.21175 -49.3498C5.00809 -43.4997 5.50086 -31.272 6.67093 -21.1162C7.75977 -11.6645 8.86115 -2.45917 8.77321 7.61958C8.67019 19.4877 9.02449 34.1256 6.12708 41.2234C3.21012 48.3734 -0.912924 39.842 -4.56275 40.3067C-7.86554 40.7284 -11.4322 49.9207 -14.1727 43.8194C-16.9422 37.6548 -15.6244 23.1889 -16.8386 12.9799C-17.9587 3.56485 -21.261 -3.2888 -20.9706 -13.3281C-20.6775 -23.5141 -17.7678 -30.36 -15.3986 -37.0003C-13.0858 -43.4812 -10.5441 -48.8178 -7.56263 -50.9097C-4.29864 -53.1903 -0.612234 -55.2596 2.21175 -49.3498Z" stroke="white"/>
<path opacity="0.2" fill-rule="evenodd" clip-rule="evenodd" d="M3.40497 -57.5214C6.67147 -50.684 7.24855 -36.4016 8.61573 -24.5353C9.88827 -13.4931 11.1759 -2.74184 11.0726 9.03C10.9525 22.8909 11.3657 39.9898 7.98253 48.2811C4.57644 56.6291 -0.241784 46.6619 -4.50554 47.2055C-8.36419 47.6968 -12.5305 58.4294 -15.7325 51.3032C-18.9686 44.1009 -17.4291 27.2042 -18.8488 15.2784C-20.1579 4.27837 -24.016 -3.72505 -23.6788 -15.4492C-23.3368 -27.3466 -19.9376 -35.341 -17.1706 -43.0951C-14.4692 -50.665 -11.5 -56.8948 -8.01689 -59.3387C-4.20095 -62.0117 0.105809 -64.4239 3.40497 -57.5214Z" stroke="white"/>
<path opacity="0.2" fill-rule="evenodd" clip-rule="evenodd" d="M4.70682 -66.4343C8.48786 -58.5253 9.1554 -41.9989 10.7373 -28.2691C12.21 -15.4926 13.7006 -3.0514 13.583 10.5675C13.4434 26.6046 13.9234 46.386 10.0094 55.9743C6.0673 65.6323 0.492766 54.098 -4.44104 54.7269C-8.90581 55.2924 -13.7263 67.7096 -17.4317 59.4624C-21.1764 51.129 -19.396 31.5808 -21.0393 17.7813C-22.5548 5.0571 -27.0192 -4.20831 -26.6301 -17.7695C-26.2347 -31.5369 -22.3026 -40.7779 -19.1006 -49.753C-15.9737 -58.509 -12.5397 -65.7159 -8.50937 -68.5393C-4.09458 -71.6339 0.888651 -74.423 4.70682 -66.4343Z" stroke="white"/>
<path opacity="0.2" fill-rule="evenodd" clip-rule="evenodd" d="M5.9724 -75.1026C10.2529 -66.1468 11.009 -47.4414 12.8011 -31.9002C14.4689 -17.4389 16.1566 -3.35612 16.024 12.0604C15.8677 30.2104 16.4101 52.6021 11.9802 63.4555C7.51771 74.3849 1.20695 61.3258 -4.3782 62.0344C-9.4315 62.676 -14.8888 76.7269 -19.0836 67.3916C-23.3231 57.9563 -21.3082 35.8305 -23.1689 20.2115C-24.8848 5.80971 -29.939 -4.67961 -29.499 -20.0301C-29.0523 -35.6134 -24.6012 -46.0733 -20.9768 -56.2273C-17.4389 -66.1383 -13.5504 -74.2941 -8.98788 -77.4887C-3.99098 -80.9886 1.65001 -84.1455 5.9724 -75.1026Z" stroke="white"/>
<path opacity="0.2" fill-rule="evenodd" clip-rule="evenodd" d="M7.12962 -83.0269C11.8669 -73.1178 12.7039 -52.4195 14.6875 -35.2247C16.5332 -19.2215 18.4007 -3.64006 18.2547 13.4191C18.0822 33.5033 18.683 58.2817 13.781 70.2891C8.84271 82.3836 1.85967 67.9326 -4.32183 68.7154C-9.9148 69.4212 -15.9525 84.9706 -20.5949 74.6379C-25.2852 64.1953 -23.0573 39.7128 -25.1177 22.4318C-27.0162 6.4928 -32.6103 -5.11411 -32.1234 -22.0999C-31.6292 -39.3415 -26.704 -50.9171 -22.6932 -62.1517C-18.7785 -73.1169 -14.4753 -82.1352 -9.42678 -85.6735C-3.89635 -89.5428 2.34518 -93.0333 7.12962 -83.0269Z" stroke="white"/>
<path opacity="0.2" fill-rule="evenodd" clip-rule="evenodd" d="M8.35916 -91.4451C13.5816 -80.5194 14.5046 -57.706 16.6918 -38.7484C18.7271 -21.1062 20.7864 -3.93066 20.625 14.8766C20.4354 37.0123 21.0996 64.3251 15.6943 77.5599C10.2501 90.8901 2.55206 74.9604 -4.26124 75.8184C-10.4268 76.5985 -17.0821 93.7347 -22.2002 82.3442C-27.3724 70.8327 -24.9156 43.844 -27.1862 24.7975C-29.2801 7.22953 -35.4462 -5.56604 -34.9099 -24.2899C-34.3655 -43.296 -28.9353 -56.0543 -24.5152 -68.4385C-20.1998 -80.5256 -15.4564 -90.4703 -9.89107 -94.3643C-3.79528 -98.6295 3.08586 -102.478 8.35916 -91.4451Z" stroke="white"/>
<path opacity="0.2" fill-rule="evenodd" clip-rule="evenodd" d="M9.69648 -100.606C15.4478 -88.5735 16.464 -63.458 18.8723 -42.5809C21.1133 -23.1595 23.3811 -4.24781 23.2041 16.4524C22.9956 40.8256 23.7259 70.8969 17.7762 85.4673C11.7831 100.143 3.30559 82.6039 -4.1959 83.549C-10.9846 84.4042 -18.3125 103.272 -23.9476 90.7292C-29.643 78.0554 -26.938 48.3461 -29.4384 27.3691C-31.7442 8.02744 -38.5338 -6.06534 -37.9436 -26.6784C-37.3444 -47.6013 -31.3667 -61.6483 -26.4991 -75.281C-21.7479 -88.5882 -16.5254 -99.5353 -10.3975 -103.823C-3.68639 -108.52 3.88938 -112.757 9.69648 -100.606Z" stroke="white"/>
</g>
</g>
<g filter="url(#filter0_d_1_631)">
<path d="M36 29.5C36 22.5964 41.5964 17 48.5 17C55.4036 17 61 22.5964 61 29.5C61 36.4036 55.4036 42 48.5 42C41.5964 42 36 36.4036 36 29.5Z" fill="white"/>
</g>
<path d="M49 34.1293C48.3045 34.1293 47.712 33.94 47.2227 33.5614C46.7333 33.1798 46.3594 32.6274 46.1009 31.9041C45.8423 31.1778 45.7131 30.3007 45.7131 29.2727C45.7131 28.2509 45.8423 27.3784 46.1009 26.6552C46.3625 25.9289 46.7379 25.3749 47.2273 24.9933C47.7197 24.6085 48.3106 24.4162 49 24.4162C49.6894 24.4162 50.2788 24.6085 50.7681 24.9933C51.2605 25.3749 51.636 25.9289 51.8945 26.6552C52.1561 27.3784 52.2869 28.2509 52.2869 29.2727C52.2869 30.3007 52.1577 31.1778 51.8991 31.9041C51.6406 32.6274 51.2667 33.1798 50.7773 33.5614C50.288 33.94 49.6955 34.1293 49 34.1293ZM49 33.1136C49.6894 33.1136 50.2249 32.7812 50.6065 32.1165C50.9882 31.4517 51.179 30.5038 51.179 29.2727C51.179 28.4541 51.0913 27.757 50.9158 27.1815C50.7435 26.6059 50.4942 26.1674 50.168 25.8658C49.8448 25.5642 49.4555 25.4134 49 25.4134C48.3168 25.4134 47.7828 25.7504 47.3981 26.4244C47.0134 27.0953 46.821 28.0447 46.821 29.2727C46.821 30.0914 46.9072 30.7869 47.0795 31.3594C47.2519 31.9318 47.4996 32.3673 47.8228 32.6658C48.149 32.9644 48.5414 33.1136 49 33.1136Z" fill="#35B8BE"/>
<g clip-path="url(#clip1_1_631)">
<path d="M16.8322 44H13V42H19.4619L20.1219 46H36.5294V51.9384L18.5432 54.3694L16.8322 44ZM35.7941 59C34.5758 59 33.5882 58.3284 33.5882 57.5C33.5882 56.6716 34.5758 56 35.7941 56C37.0124 56 38 56.6716 38 57.5C38 58.3284 37.0124 59 35.7941 59ZM21.0882 59C19.87 59 18.8824 58.3284 18.8824 57.5C18.8824 56.6716 19.87 56 21.0882 56C22.3065 56 23.2941 56.6716 23.2941 57.5C23.2941 58.3284 22.3065 59 21.0882 59Z" fill="white"/>
</g>
<defs>
<filter id="filter0_d_1_631" x="18" y="-1" width="75" height="75" filterUnits="userSpaceOnUse" color-interpolation-filters="sRGB">
<feFlood flood-opacity="0" result="BackgroundImageFix"/>
<feColorMatrix in="SourceAlpha" type="matrix" values="0 0 0 0 0 0 0 0 0 0 0 0 0 0 0 0 0 0 127 0" result="hardAlpha"/>
<feOffset dx="7" dy="7"/>
<feGaussianBlur stdDeviation="12.5"/>
<feColorMatrix type="matrix" values="0 0 0 0 0.494118 0 0 0 0 0.509804 0 0 0 0 0.560784 0 0 0 0.27 0"/>
<feBlend mode="normal" in2="BackgroundImageFix" result="effect1_dropShadow_1_631"/>
<feBlend mode="normal" in="SourceGraphic" in2="effect1_dropShadow_1_631" result="shape"/>
</filter>
<clipPath id="clip0_1_631">
<path d="M0 27C0 24.7909 1.79086 23 4 23H51C53.2091 23 55 24.7909 55 27V74C55 76.2091 53.2091 78 51 78H4C1.79086 78 0 76.2091 0 74V27Z" fill="white"/>
</clipPath>
<clipPath id="clip1_1_631">
<rect width="25" height="17" fill="white" transform="translate(13 42)"/>
</clipPath>
</defs>
</svg>
